<?xml version="1.0" encoding="UTF-8" standalone="no"?>
<!DOCTYPE svg PUBLIC "-//W3C//DTD SVG 1.0//EN" "http://www.w3.org/TR/2001/PR-SVG-20010719/DTD/svg10.dtd">
<svg width="36cm" height="17cm" viewBox="303 277 719 337" xmlns="http://www.w3.org/2000/svg" xmlns:xlink="http://www.w3.org/1999/xlink">
  <g>
    <rect style="fill: #ffffff" x="353" y="340" width="133.8" height="18"/>
    <rect style="fill: none; fill-opacity:0; stroke-width: 2; stroke: #000000" x="353" y="340" width="133.8" height="18"/>
    <text font-size="11.2" style="fill: #000000;text-anchor:middle;font-family:sans-serif;font-style:normal;font-weight:700" x="419.9" y="354">User</text>
    <rect style="fill: #ffffff" x="353" y="358" width="133.8" height="68"/>
    <rect style="fill: none; fill-opacity:0; stroke-width: 2; stroke: #000000" x="353" y="358" width="133.8" height="68"/>
    <polygon style="fill: #000000" points="356,368 358,371 360,368 358,365 "/>
    <text font-size="12.8" style="fill: #000000;text-anchor:start;font-family:monospace;font-style:normal;font-weight:normal" x="362" y="374">ID</text>
    <text font-size="12.8" style="fill: #000000;text-anchor:start;font-family:monospace;font-style:normal;font-weight:normal" x="433.6" y="374">Int</text>
    <line style="fill: none; fill-opacity:0; stroke-width: 1; stroke: #000000" x1="362" y1="375.6" x2="456.7" y2="375.6"/>
    <ellipse style="fill: #000000" cx="358" cy="384" rx="2" ry="2"/>
    <text font-size="12.8" style="fill: #000000;text-anchor:start;font-family:monospace;font-style:normal;font-weight:normal" x="362" y="390">Name</text>
    <text font-size="12.8" style="fill: #000000;text-anchor:start;font-family:monospace;font-style:normal;font-weight:normal" x="433.6" y="390">String</text>
    <ellipse style="fill: #000000" cx="358" cy="400" rx="2" ry="2"/>
    <text font-size="12.8" style="fill: #000000;text-anchor:start;font-family:monospace;font-style:normal;font-weight:normal" x="362" y="406">Password</text>
    <text font-size="12.8" style="fill: #000000;text-anchor:start;font-family:monospace;font-style:normal;font-weight:normal" x="433.6" y="406">String</text>
    <ellipse style="fill: #000000" cx="358" cy="416" rx="2" ry="2"/>
    <text font-size="12.8" style="fill: #000000;text-anchor:start;font-family:monospace;font-style:normal;font-weight:normal" x="362" y="422">OPCode</text>
    <text font-size="12.8" style="fill: #000000;text-anchor:start;font-family:monospace;font-style:normal;font-weight:normal" x="433.6" y="422">Int</text>
  </g>
  <g>
    <rect style="fill: #ffffff" x="818" y="413" width="133.8" height="18"/>
    <rect style="fill: none; fill-opacity:0; stroke-width: 2; stroke: #000000" x="818" y="413" width="133.8" height="18"/>
    <text font-size="11.2" style="fill: #000000;text-anchor:middle;font-family:sans-serif;font-style:normal;font-weight:700" x="884.9" y="427">Product</text>
    <rect style="fill: #ffffff" x="818" y="431" width="133.8" height="84"/>
    <rect style="fill: none; fill-opacity:0; stroke-width: 2; stroke: #000000" x="818" y="431" width="133.8" height="84"/>
    <ellipse style="fill: #000000" cx="823" cy="441" rx="2" ry="2"/>
    <text font-size="12.8" style="fill: #000000;text-anchor:start;font-family:monospace;font-style:normal;font-weight:normal" x="827" y="447">Name</text>
    <text font-size="12.8" style="fill: #000000;text-anchor:start;font-family:monospace;font-style:normal;font-weight:normal" x="883.2" y="447">String</text>
    <polygon style="fill: #000000" points="821,457 823,460 825,457 823,454 "/>
    <text font-size="12.8" style="fill: #000000;text-anchor:start;font-family:monospace;font-style:normal;font-weight:normal" x="827" y="463">ID</text>
    <text font-size="12.8" style="fill: #000000;text-anchor:start;font-family:monospace;font-style:normal;font-weight:normal" x="883.2" y="463">Int</text>
    <line style="fill: none; fill-opacity:0; stroke-width: 1; stroke: #000000" x1="827" y1="464.6" x2="906.3" y2="464.6"/>
    <ellipse style="fill: #000000" cx="823" cy="473" rx="2" ry="2"/>
    <text font-size="12.8" style="fill: #000000;text-anchor:start;font-family:monospace;font-style:normal;font-weight:normal" x="827" y="479">Amount</text>
    <text font-size="12.8" style="fill: #000000;text-anchor:start;font-family:monospace;font-style:normal;font-weight:normal" x="883.2" y="479">Int</text>
    <ellipse style="fill: #000000" cx="823" cy="489" rx="2" ry="2"/>
    <text font-size="12.8" style="fill: #000000;text-anchor:start;font-family:monospace;font-style:normal;font-weight:normal" x="827" y="495">Price</text>
    <text font-size="12.8" style="fill: #000000;text-anchor:start;font-family:monospace;font-style:normal;font-weight:normal" x="883.2" y="495">Float</text>
    <ellipse style="fill: #000000" cx="823" cy="505" rx="2" ry="2"/>
    <text font-size="12.8" style="fill: #000000;text-anchor:start;font-family:monospace;font-style:normal;font-weight:normal" x="827" y="511">Sizes</text>
    <text font-size="12.8" style="fill: #000000;text-anchor:start;font-family:monospace;font-style:normal;font-weight:normal" x="883.2" y="511">String[]</text>
  </g>
  <g>
    <rect style="fill: #ffffff" x="375" y="492" width="87.6" height="18"/>
    <rect style="fill: none; fill-opacity:0; stroke-width: 2; stroke: #000000" x="375" y="492" width="87.6" height="18"/>
    <text font-size="11.2" style="fill: #000000;text-anchor:middle;font-family:sans-serif;font-style:normal;font-weight:700" x="418.8" y="506">SuperUser</text>
    <rect style="fill: #ffffff" x="375" y="510" width="87.6" height="52"/>
    <rect style="fill: none; fill-opacity:0; stroke-width: 2; stroke: #000000" x="375" y="510" width="87.6" height="52"/>
    <polygon style="fill: #000000" points="378,520 380,523 382,520 380,517 "/>
    <text font-size="12.8" style="fill: #000000;text-anchor:start;font-family:monospace;font-style:normal;font-weight:normal" x="384" y="526">UserID</text>
    <text font-size="12.8" style="fill: #000000;text-anchor:start;font-family:monospace;font-style:normal;font-weight:normal" x="440.2" y="526">FK</text>
    <line style="fill: none; fill-opacity:0; stroke-width: 1; stroke: #000000" x1="384" y1="527.6" x2="455.6" y2="527.6"/>
    <ellipse style="fill: #000000" cx="380" cy="536" rx="2" ry="2"/>
    <text font-size="12.8" style="fill: #000000;text-anchor:start;font-family:monospace;font-style:normal;font-weight:normal" x="384" y="542">Name</text>
    <text font-size="12.8" style="fill: #000000;text-anchor:start;font-family:monospace;font-style:normal;font-weight:normal" x="440.2" y="542">FK</text>
    <ellipse style="fill: #000000" cx="380" cy="552" rx="2" ry="2"/>
    <text font-size="12.8" style="fill: #000000;text-anchor:start;font-family:monospace;font-style:normal;font-weight:normal" x="384" y="558">OPCode</text>
    <text font-size="12.8" style="fill: #000000;text-anchor:start;font-family:monospace;font-style:normal;font-weight:normal" x="440.2" y="558">FK</text>
  </g>
  <g>
    <rect style="fill: #ffffff" x="597" y="324" width="133.8" height="18"/>
    <rect style="fill: none; fill-opacity:0; stroke-width: 2; stroke: #000000" x="597" y="324" width="133.8" height="18"/>
    <text font-size="11.2" style="fill: #000000;text-anchor:middle;font-family:sans-serif;font-style:normal;font-weight:700" x="663.9" y="338">Transactions</text>
    <rect style="fill: #ffffff" x="597" y="342" width="133.8" height="84"/>
    <rect style="fill: none; fill-opacity:0; stroke-width: 2; stroke: #000000" x="597" y="342" width="133.8" height="84"/>
    <polygon style="fill: #000000" points="600,352 602,355 604,352 602,349 "/>
    <text font-size="12.8" style="fill: #000000;text-anchor:start;font-family:monospace;font-style:normal;font-weight:normal" x="606" y="358">ID</text>
    <text font-size="12.8" style="fill: #000000;text-anchor:start;font-family:monospace;font-style:normal;font-weight:normal" x="677.6" y="358">Int</text>
    <line style="fill: none; fill-opacity:0; stroke-width: 1; stroke: #000000" x1="606" y1="359.6" x2="700.7" y2="359.6"/>
    <ellipse style="fill: #000000" cx="602" cy="368" rx="2" ry="2"/>
    <text font-size="12.8" style="fill: #000000;text-anchor:start;font-family:monospace;font-style:normal;font-weight:normal" x="606" y="374">Products</text>
    <text font-size="12.8" style="fill: #000000;text-anchor:start;font-family:monospace;font-style:normal;font-weight:normal" x="677.6" y="374">FK[]</text>
    <ellipse style="fill: #000000" cx="602" cy="384" rx="2" ry="2"/>
    <text font-size="12.8" style="fill: #000000;text-anchor:start;font-family:monospace;font-style:normal;font-weight:normal" x="606" y="390">Amounts</text>
    <text font-size="12.8" style="fill: #000000;text-anchor:start;font-family:monospace;font-style:normal;font-weight:normal" x="677.6" y="390">FK[]</text>
    <ellipse style="fill: #000000" cx="602" cy="400" rx="2" ry="2"/>
    <text font-size="12.8" style="fill: #000000;text-anchor:start;font-family:monospace;font-style:normal;font-weight:normal" x="606" y="406">Sizes</text>
    <text font-size="12.8" style="fill: #000000;text-anchor:start;font-family:monospace;font-style:normal;font-weight:normal" x="677.6" y="406">FK[][]</text>
    <ellipse style="fill: #000000" cx="602" cy="416" rx="2" ry="2"/>
    <text font-size="12.8" style="fill: #000000;text-anchor:start;font-family:monospace;font-style:normal;font-weight:normal" x="606" y="422">Buyer</text>
    <text font-size="12.8" style="fill: #000000;text-anchor:start;font-family:monospace;font-style:normal;font-weight:normal" x="677.6" y="422">FK</text>
  </g>
  <g>
    <rect style="fill: #ffffff" x="591.5" y="492" width="133.8" height="18"/>
    <rect style="fill: none; fill-opacity:0; stroke-width: 2; stroke: #000000" x="591.5" y="492" width="133.8" height="18"/>
    <text font-size="11.2" style="fill: #000000;text-anchor:middle;font-family:sans-serif;font-style:normal;font-weight:700" x="658.4" y="506">Stocking</text>
    <rect style="fill: #ffffff" x="591.5" y="510" width="133.8" height="68"/>
    <rect style="fill: none; fill-opacity:0; stroke-width: 2; stroke: #000000" x="591.5" y="510" width="133.8" height="68"/>
    <polygon style="fill: #000000" points="594.5,520 596.5,523 598.5,520 596.5,517 "/>
    <text font-size="12.8" style="fill: #000000;text-anchor:start;font-family:monospace;font-style:normal;font-weight:normal" x="600.5" y="526">ID</text>
    <text font-size="12.8" style="fill: #000000;text-anchor:start;font-family:monospace;font-style:normal;font-weight:normal" x="672.1" y="526">Int</text>
    <line style="fill: none; fill-opacity:0; stroke-width: 1; stroke: #000000" x1="600.5" y1="527.6" x2="695.2" y2="527.6"/>
    <ellipse style="fill: #000000" cx="596.5" cy="536" rx="2" ry="2"/>
    <text font-size="12.8" style="fill: #000000;text-anchor:start;font-family:monospace;font-style:normal;font-weight:normal" x="600.5" y="542">Products</text>
    <text font-size="12.8" style="fill: #000000;text-anchor:start;font-family:monospace;font-style:normal;font-weight:normal" x="672.1" y="542">FK[]</text>
    <ellipse style="fill: #000000" cx="596.5" cy="552" rx="2" ry="2"/>
    <text font-size="12.8" style="fill: #000000;text-anchor:start;font-family:monospace;font-style:normal;font-weight:normal" x="600.5" y="558">Amounts</text>
    <text font-size="12.8" style="fill: #000000;text-anchor:start;font-family:monospace;font-style:normal;font-weight:normal" x="672.1" y="558">FK[]</text>
    <ellipse style="fill: #000000" cx="596.5" cy="568" rx="2" ry="2"/>
    <text font-size="12.8" style="fill: #000000;text-anchor:start;font-family:monospace;font-style:normal;font-weight:normal" x="600.5" y="574">Sizes</text>
    <text font-size="12.8" style="fill: #000000;text-anchor:start;font-family:monospace;font-style:normal;font-weight:normal" x="672.1" y="574">FK[][]</text>
  </g>
  <g>
    <line style="fill: none; fill-opacity:0; stroke-width: 2; stroke: #000000" x1="418.8" y1="492" x2="419.825" y2="430.472"/>
    <polyline style="fill: none; fill-opacity:0; stroke-width: 2; stroke: #000000" points="424.695,438.318 419.863,428.236 414.697,438.151 "/>
  </g>
  <polyline style="fill: none; fill-opacity:0; stroke-width: 2; stroke: #000000" points="486.8,384 487.8,384 596,384 597,384 "/>
  <polyline style="fill: none; fill-opacity:0; stroke-width: 2; stroke: #000000" points="730.8,384 884.9,384 884.9,413 "/>
  <polyline style="fill: none; fill-opacity:0; stroke-width: 2; stroke: #000000" points="725.3,536 725,536 725,539 884.9,539 884.9,515 "/>
  <polyline style="fill: none; fill-opacity:0; stroke-width: 2; stroke: #000000" points="462.6,536 463.6,536 590.5,536 591.5,536 "/>
  <text font-size="12.8" style="fill: #000000;text-anchor:start;font-family:sans-serif;font-style:normal;font-weight:normal" x="497" y="376">
    <tspan x="497" y="376">1</tspan>
  </text>
  <text font-size="12.8" style="fill: #000000;text-anchor:start;font-family:sans-serif;font-style:normal;font-weight:normal" x="582" y="376">
    <tspan x="582" y="376">N</tspan>
  </text>
  <text font-size="12.8" style="fill: #000000;text-anchor:start;font-family:sans-serif;font-style:normal;font-weight:normal" x="474" y="527">
    <tspan x="474" y="527">1</tspan>
  </text>
  <text font-size="12.8" style="fill: #000000;text-anchor:start;font-family:sans-serif;font-style:normal;font-weight:normal" x="577" y="528">
    <tspan x="577" y="528">N</tspan>
  </text>
  <text font-size="12.8" style="fill: #000000;text-anchor:start;font-family:sans-serif;font-style:normal;font-weight:normal" x="899" y="400">
    <tspan x="899" y="400">N</tspan>
  </text>
  <text font-size="12.8" style="fill: #000000;text-anchor:start;font-family:sans-serif;font-style:normal;font-weight:normal" x="738" y="371">
    <tspan x="738" y="371">M</tspan>
  </text>
  <text font-size="12.8" style="fill: #000000;text-anchor:start;font-family:sans-serif;font-style:normal;font-weight:normal" x="899" y="533">
    <tspan x="899" y="533">N</tspan>
  </text>
  <text font-size="12.8" style="fill: #000000;text-anchor:start;font-family:sans-serif;font-style:normal;font-weight:normal" x="738" y="531">
    <tspan x="738" y="531">M</tspan>
  </text>
  <rect style="fill: none; fill-opacity:0; stroke-width: 2; stroke: #000000" x="305" y="279" width="716" height="334"/>
</svg>
