<?xml version="1.0" encoding="UTF-8" standalone="no"?>
<!DOCTYPE svg PUBLIC "-//W3C//DTD SVG 1.0//EN" "http://www.w3.org/TR/2001/PR-SVG-20010719/DTD/svg10.dtd">
<svg width="83cm" height="40cm" viewBox="24 -245 1647 786" xmlns="http://www.w3.org/2000/svg" xmlns:xlink="http://www.w3.org/1999/xlink">
  <g>
    <rect style="fill: #ffffff" x="905.31" y="184.92" width="119.3" height="54"/>
    <rect style="fill: none; fill-opacity:0; stroke-width: 2; stroke: #000000" x="905.31" y="184.92" width="119.3" height="54"/>
    <text font-size="12.8" style="fill: #000000;text-anchor:middle;font-family:sans-serif;font-style:normal;font-weight:normal" x="964.96" y="216.72">
      <tspan x="964.96" y="216.72">Tela de Início</tspan>
    </text>
  </g>
  <g>
    <rect style="fill: #ffffff" x="66.0274" y="238.954" width="181.85" height="54"/>
    <rect style="fill: none; fill-opacity:0; stroke-width: 2; stroke: #000000" x="66.0274" y="238.954" width="181.85" height="54"/>
    <text font-size="12.8" style="fill: #000000;text-anchor:middle;font-family:sans-serif;font-style:normal;font-weight:normal" x="156.952" y="270.754">
      <tspan x="156.952" y="270.754">Tela de Registro de Perda</tspan>
    </text>
  </g>
  <g>
    <rect style="fill: #ffffff" x="881.528" y="406.922" width="125.3" height="38"/>
    <rect style="fill: none; fill-opacity:0; stroke-width: 2; stroke: #000000" x="881.528" y="406.922" width="125.3" height="38"/>
    <text font-size="12.8" style="fill: #000000;text-anchor:middle;font-family:sans-serif;font-style:normal;font-weight:normal" x="944.178" y="430.722">
      <tspan x="944.178" y="430.722">Tela de Compra</tspan>
    </text>
  </g>
  <g>
    <rect style="fill: #ffffff" x="350.304" y="282.108" width="118.75" height="54"/>
    <rect style="fill: none; fill-opacity:0; stroke-width: 2; stroke: #000000" x="350.304" y="282.108" width="118.75" height="54"/>
    <text font-size="12.8" style="fill: #000000;text-anchor:middle;font-family:sans-serif;font-style:normal;font-weight:normal" x="409.679" y="313.908">
      <tspan x="409.679" y="313.908">Tela de Admin</tspan>
    </text>
  </g>
  <g>
    <rect style="fill: #ffffff" x="46.1412" y="321.568" width="211.85" height="38"/>
    <rect style="fill: none; fill-opacity:0; stroke-width: 2; stroke: #000000" x="46.1412" y="321.568" width="211.85" height="38"/>
    <text font-size="12.8" style="fill: #000000;text-anchor:middle;font-family:sans-serif;font-style:normal;font-weight:normal" x="152.066" y="345.368">
      <tspan x="152.066" y="345.368">Tela de Modificação de Produtos</tspan>
    </text>
  </g>
  <g>
    <rect style="fill: #ffffff" x="80.3456" y="385.25" width="178.35" height="54"/>
    <rect style="fill: none; fill-opacity:0; stroke-width: 2; stroke: #000000" x="80.3456" y="385.25" width="178.35" height="54"/>
    <text font-size="12.8" style="fill: #000000;text-anchor:middle;font-family:sans-serif;font-style:normal;font-weight:normal" x="169.521" y="417.05">
      <tspan x="169.521" y="417.05">Tela de Pedidos de Estoque</tspan>
    </text>
  </g>
  <g>
    <rect style="fill: #ffffff" x="1434.03" y="287.334" width="159.05" height="54"/>
    <rect style="fill: none; fill-opacity:0; stroke-width: 2; stroke: #000000" x="1434.03" y="287.334" width="159.05" height="54"/>
    <text font-size="12.8" style="fill: #000000;text-anchor:middle;font-family:sans-serif;font-style:normal;font-weight:normal" x="1513.56" y="319.134">
      <tspan x="1513.56" y="319.134">Tela de Início do Cliente</tspan>
    </text>
  </g>
  <g>
    <rect style="fill: #ffffff" x="1427.31" y="406.91" width="171.95" height="38"/>
    <rect style="fill: none; fill-opacity:0; stroke-width: 2; stroke: #000000" x="1427.31" y="406.91" width="171.95" height="38"/>
    <text font-size="12.8" style="fill: #000000;text-anchor:middle;font-family:sans-serif;font-style:normal;font-weight:normal" x="1513.28" y="430.71">
      <tspan x="1513.28" y="430.71">Tela de Pedidos do Cliente</tspan>
    </text>
  </g>
  <g>
    <rect style="fill: #ffffff" x="108.555" y="169.634" width="135.75" height="38"/>
    <rect style="fill: none; fill-opacity:0; stroke-width: 2; stroke: #000000" x="108.555" y="169.634" width="135.75" height="38"/>
    <text font-size="12.8" style="fill: #000000;text-anchor:middle;font-family:sans-serif;font-style:normal;font-weight:normal" x="176.43" y="193.434">
      <tspan x="176.43" y="193.434">Tela de Visualização</tspan>
    </text>
  </g>
  <g>
    <polygon style="fill: #ffffff" points="1241.76,256.062 1353.48,314.553 1241.76,373.045 1130.04,314.553 "/>
    <polygon style="fill: none; fill-opacity:0; stroke-width: 2; stroke: #000000" points="1241.76,256.062 1353.48,314.553 1241.76,373.045 1130.04,314.553 "/>
    <text font-size="12.8" style="fill: #000000;text-anchor:middle;font-family:sans-serif;font-style:normal;font-weight:normal" x="1241.76" y="319.353">
      <tspan x="1241.76" y="319.353">Usuário está autenticado?</tspan>
    </text>
  </g>
  <g>
    <polygon style="fill: #ffffff" points="638.404,242.158 768.82,310.44 638.404,378.722 507.988,310.44 "/>
    <polygon style="fill: none; fill-opacity:0; stroke-width: 2; stroke: #000000" points="638.404,242.158 768.82,310.44 638.404,378.722 507.988,310.44 "/>
    <text font-size="12.8" style="fill: #000000;text-anchor:middle;font-family:sans-serif;font-style:normal;font-weight:normal" x="638.404" y="315.24">
      <tspan x="638.404" y="315.24">Super-usuário está autenticado?</tspan>
    </text>
  </g>
  <g>
    <ellipse style="fill: #ffffff" cx="960.735" cy="-162.159" rx="93.2907" ry="46.6454"/>
    <ellipse style="fill: none; fill-opacity:0; stroke-width: 2; stroke: #000000" cx="960.735" cy="-162.159" rx="93.2907" ry="46.6454"/>
    <text font-size="12.8" style="fill: #000000;text-anchor:middle;font-family:sans-serif;font-style:normal;font-weight:normal" x="960.735" y="-157.359">
      <tspan x="960.735" y="-157.359">Visualizador entra na página</tspan>
    </text>
  </g>
  <g>
    <polygon style="fill: #ffffff" points="964.624,-76.2056 1163.61,23.2885 964.624,122.783 765.636,23.2885 "/>
    <polygon style="fill: none; fill-opacity:0; stroke-width: 2; stroke: #000000" points="964.624,-76.2056 1163.61,23.2885 964.624,122.783 765.636,23.2885 "/>
    <text font-size="12.8" style="fill: #000000;text-anchor:middle;font-family:sans-serif;font-style:normal;font-weight:normal" x="964.624" y="28.0885">
      <tspan x="964.624" y="28.0885">Existe alguma autenticação registrada?</tspan>
    </text>
  </g>
  <g>
    <polyline style="fill: none; fill-opacity:0; stroke-width: 2; stroke: #000000" points="960.734,-115.514 960.734,-95.8598 964.624,-95.8598 964.624,-80.6777 "/>
    <polyline style="fill: none; fill-opacity:0; stroke-width: 2; stroke: #000000" points="959.624,-88.4417 964.624,-78.4417 969.624,-88.4417 "/>
  </g>
  <g>
    <polyline style="fill: none; fill-opacity:0; stroke-width: 2; stroke: #000000" points="765.636,23.2886 765.636,22.3664 638.406,22.3664 638.406,237.686 "/>
    <polyline style="fill: none; fill-opacity:0; stroke-width: 2; stroke: #000000" points="633.406,229.922 638.406,239.922 643.406,229.922 "/>
  </g>
  <g>
    <polyline style="fill: none; fill-opacity:0; stroke-width: 2; stroke: #000000" points="1163.61,23.2886 1163.61,23.6632 1241.76,23.6632 1241.76,251.59 "/>
    <polyline style="fill: none; fill-opacity:0; stroke-width: 2; stroke: #000000" points="1236.76,243.826 1241.76,253.826 1246.76,243.826 "/>
  </g>
  <text font-size="12.8" style="fill: #000000;text-anchor:start;font-family:sans-serif;font-style:normal;font-weight:normal" x="660.652" y="16.6557">
    <tspan x="660.652" y="16.6557">Sim: SU</tspan>
  </text>
  <text font-size="12.8" style="fill: #000000;text-anchor:start;font-family:sans-serif;font-style:normal;font-weight:normal" x="1193.48" y="15.8846">
    <tspan x="1193.48" y="15.8846">Sim: U</tspan>
  </text>
  <g>
    <polyline style="fill: none; fill-opacity:0; stroke-width: 2; stroke: #000000" points="964.624,122.783 964.624,145.348 964.96,145.348 964.96,180.448 "/>
    <polyline style="fill: none; fill-opacity:0; stroke-width: 2; stroke: #000000" points="959.96,172.684 964.96,182.684 969.96,172.684 "/>
  </g>
  <text font-size="12.8" style="fill: #000000;text-anchor:start;font-family:sans-serif;font-style:normal;font-weight:normal" x="974.75" y="153.55">
    <tspan x="974.75" y="153.55">Não</tspan>
  </text>
  <g>
    <path style="fill: #ffffff" d="M 853.208 297.55 L 1076.29,297.55 L 1031.67,337.55 L 897.825,337.55 L 853.208,297.55z"/>
    <path style="fill: none; fill-opacity:0; stroke-width: 2; stroke: #000000" d="M 853.208 297.55 L 1076.29,297.55 L 1031.67,337.55 L 897.825,337.55 L 853.208,297.55"/>
    <text font-size="12.8" style="fill: #000000;text-anchor:middle;font-family:sans-serif;font-style:normal;font-weight:normal" x="964.75" y="322.35">
      <tspan x="964.75" y="322.35">Modal de Autenticação</tspan>
    </text>
  </g>
  <g>
    <polyline style="fill: none; fill-opacity:0; stroke-width: 2; stroke: #000000" points="964.96,239.927 964.96,268.738 964.75,268.738 964.75,293.078 "/>
    <polyline style="fill: none; fill-opacity:0; stroke-width: 2; stroke: #000000" points="959.75,285.314 964.75,295.314 969.75,285.314 "/>
  </g>
  <g>
    <polyline style="fill: none; fill-opacity:0; stroke-width: 2; stroke: #000000" points="964.75,342.022 964.75,368.262 768.822,368.262 768.822,314.912 "/>
    <polyline style="fill: none; fill-opacity:0; stroke-width: 2; stroke: #000000" points="969.75,349.786 964.75,339.786 959.75,349.786 "/>
    <polyline style="fill: none; fill-opacity:0; stroke-width: 2; stroke: #000000" points="773.822,322.676 768.822,312.676 763.822,322.676 "/>
  </g>
  <g>
    <polyline style="fill: none; fill-opacity:0; stroke-width: 2; stroke: #000000" points="964.75,337.55 964.75,368.262 1130.04,368.262 1130.04,319.026 "/>
    <polyline style="fill: none; fill-opacity:0; stroke-width: 2; stroke: #000000" points="1135.04,326.79 1130.04,316.79 1125.04,326.79 "/>
  </g>
  <g>
    <line style="fill: none; fill-opacity:0; stroke-width: 2; stroke: #000000" x1="507.988" y1="310.44" x2="473.524" y2="309.261"/>
    <polyline style="fill: none; fill-opacity:0; stroke-width: 2; stroke: #000000" points="481.454,304.529 471.289,309.184 481.112,314.523 "/>
  </g>
  <g>
    <line style="fill: none; fill-opacity:0; stroke-width: 2; stroke: #000000" x1="248.197" y1="190.835" x2="405.787" y2="279.907"/>
    <polyline style="fill: none; fill-opacity:0; stroke-width: 2; stroke: #000000" points="257.417,190.302 246.251,189.734 252.496,199.008 "/>
    <polyline style="fill: none; fill-opacity:0; stroke-width: 2; stroke: #000000" points="396.567,280.44 407.733,281.008 401.488,271.734 "/>
  </g>
  <g>
    <line style="fill: none; fill-opacity:0; stroke-width: 2; stroke: #000000" x1="251.999" y1="267.69" x2="346.183" y2="307.372"/>
    <polyline style="fill: none; fill-opacity:0; stroke-width: 2; stroke: #000000" points="261.095,266.097 249.939,266.822 257.213,275.313 "/>
    <polyline style="fill: none; fill-opacity:0; stroke-width: 2; stroke: #000000" points="337.087,308.965 348.243,308.24 340.969,299.749 "/>
  </g>
  <g>
    <line style="fill: none; fill-opacity:0; stroke-width: 2; stroke: #000000" x1="262.225" y1="339.125" x2="346.071" y2="310.551"/>
    <polyline style="fill: none; fill-opacity:0; stroke-width: 2; stroke: #000000" points="267.961,331.888 260.109,339.847 271.187,341.354 "/>
    <polyline style="fill: none; fill-opacity:0; stroke-width: 2; stroke: #000000" points="340.335,317.788 348.187,309.829 337.109,308.322 "/>
  </g>
  <g>
    <line style="fill: none; fill-opacity:0; stroke-width: 2; stroke: #000000" x1="262.689" y1="410.236" x2="405.687" y2="338.122"/>
    <polyline style="fill: none; fill-opacity:0; stroke-width: 2; stroke: #000000" points="267.37,402.276 260.693,411.243 271.873,411.205 "/>
    <polyline style="fill: none; fill-opacity:0; stroke-width: 2; stroke: #000000" points="401.006,346.082 407.683,337.115 396.503,337.153 "/>
  </g>
  <g>
    <polyline style="fill: none; fill-opacity:0; stroke-width: 2; stroke: #000000" points="409.679,340.58 409.679,425.922 877.056,425.922 "/>
    <polyline style="fill: none; fill-opacity:0; stroke-width: 2; stroke: #000000" points="414.679,348.344 409.679,338.344 404.679,348.344 "/>
    <polyline style="fill: none; fill-opacity:0; stroke-width: 2; stroke: #000000" points="869.292,430.922 879.292,425.922 869.292,420.922 "/>
  </g>
  <g>
    <line style="fill: none; fill-opacity:0; stroke-width: 2; stroke: #000000" x1="1353.48" y1="314.554" x2="1429.56" y2="314.346"/>
    <polyline style="fill: none; fill-opacity:0; stroke-width: 2; stroke: #000000" points="1421.81,319.367 1431.8,314.34 1421.78,309.367 "/>
  </g>
  <g>
    <polyline style="fill: none; fill-opacity:0; stroke-width: 2; stroke: #000000" points="1513.56,345.806 1513.56,374.122 1513.28,374.122 1513.28,402.438 "/>
    <polyline style="fill: none; fill-opacity:0; stroke-width: 2; stroke: #000000" points="1518.56,353.57 1513.56,343.57 1508.56,353.57 "/>
    <polyline style="fill: none; fill-opacity:0; stroke-width: 2; stroke: #000000" points="1508.28,394.674 1513.28,404.674 1518.28,394.674 "/>
  </g>
  <g>
    <polyline style="fill: none; fill-opacity:0; stroke-width: 2; stroke: #000000" points="1422.84,425.91 1217.07,425.91 1217.07,425.922 1011.3,425.922 "/>
    <polyline style="fill: none; fill-opacity:0; stroke-width: 2; stroke: #000000" points="1415.07,430.91 1425.07,425.91 1415.07,420.91 "/>
    <polyline style="fill: none; fill-opacity:0; stroke-width: 2; stroke: #000000" points="1019.06,420.922 1009.06,425.922 1019.06,430.922 "/>
  </g>
  <text font-size="12.8" style="fill: #000000;text-anchor:start;font-family:sans-serif;font-style:normal;font-weight:normal" x="785.304" y="339.834">
    <tspan x="785.304" y="339.834">Não</tspan>
  </text>
  <text font-size="12.8" style="fill: #000000;text-anchor:start;font-family:sans-serif;font-style:normal;font-weight:normal" x="1097.08" y="341.668">
    <tspan x="1097.08" y="341.668">Não</tspan>
  </text>
  <g>
    <rect style="fill: none; fill-opacity:0; stroke-width: 2; stroke: #000000" x="25.5672" y="-243.828" width="1644.78" height="783.711"/>
    <text font-size="12.8" style="fill: #000000;text-anchor:middle;font-family:sans-serif;font-style:normal;font-weight:normal" x="847.959" y="152.828">
      <tspan x="847.959" y="152.828"></tspan>
    </text>
  </g>
  <text font-size="12.8" style="fill: #000000;text-anchor:start;font-family:sans-serif;font-style:normal;font-weight:normal" x="487.084" y="300.706">
    <tspan x="487.084" y="300.706">Sim</tspan>
  </text>
  <text font-size="12.8" style="fill: #000000;text-anchor:start;font-family:sans-serif;font-style:normal;font-weight:normal" x="1405.46" y="304.56">
    <tspan x="1405.46" y="304.56">Sim</tspan>
  </text>
</svg>
